<svg clip-rule="evenodd" fill-rule="evenodd" height="440" image-rendering="optimizeQuality" shape-rendering="geometricPrecision" text-rendering="geometricPrecision" width="780" xmlns="http://www.w3.org/2000/svg"><path d="M-.5-.5h780v440H-.5V-.5z" fill="#fefefe"/><path d="M421.5 56.5a342.838 342.838 0 0 1 37-1c.237 1.291-.096 2.291-1 3-11.62-1.98-23.62-2.646-36-2z" fill="#cde8e2"/><path d="M421.5 56.5c12.38-.646 24.38.02 36 2a267.573 267.573 0 0 0-6 22c-.904.709-1.237 1.709-1 3-.934 1.068-1.268 2.401-1 4-.904.709-1.237 1.709-1 3-1.424 2.014-2.09 4.348-2 7a22676.575 22676.575 0 0 0-84 286h-36a46255.18 46255.18 0 0 0 83-288c2.105-2.908 3.105-6.242 3-10a743.368 743.368 0 0 0 9-29z" fill="#56b39f"/><path d="M451.5 80.5c12.872 7.42 17.038 18.42 12.5 33a25852.947 25852.947 0 0 1-90 304c-6.97 12.576-17.803 18.576-32.5 18-22.4-.882-31.567-12.215-27.5-34 27.998-96.655 55.998-193.322 84-290 2.017-10.379 6.85-19.046 14.5-26 .105 3.758-.895 7.092-3 10-2.605 3.55-4.439 7.55-5.5 12a776000.398 776000.398 0 0 1-85 297c-2.503 13.182 2.663 21.348 15.5 24.5 17.558 3.847 29.724-2.32 36.5-18.5a50122.157 50122.157 0 0 1 86.5-290 76.7 76.7 0 0 0 1.5-24c-1.588-3.755-4.088-6.755-7.5-9-.929-1.189-1.262-2.522-1-4-.237-1.291.096-2.291 1-3z" fill="#f6f6f7"/><path d="M450.5 83.5c-.262 1.478.071 2.811 1 4 3.412 2.245 5.912 5.245 7.5 9a76.7 76.7 0 0 1-1.5 24 50122.157 50122.157 0 0 0-86.5 290c-6.776 16.18-18.942 22.347-36.5 18.5-12.837-3.152-18.003-11.318-15.5-24.5a776000.398 776000.398 0 0 0 85-297c1.061-4.45 2.895-8.45 5.5-12a46255.18 46255.18 0 0 1-83 288c.709.904 1.709 1.237 3 1-3.107 9.765-4.273 19.765-3.5 30 3.539 6.845 9.205 9.845 17 9 5.936.754 11.269-.579 16-4a47.79 47.79 0 0 1 6-10 332.046 332.046 0 0 1 8.5-24 821.673 821.673 0 0 0 22.5-72l4-8a6477.769 6477.769 0 0 0 50-173c3.737-8.943 6.237-18.277 7.5-28a28.844 28.844 0 0 0-2.5-11c-2.09-1.916-3.923-3.916-5.5-6-.268-1.599.066-2.932 1-4z" fill="#ebeeef"/><path d="M185.5 128.5v18a308.607 308.607 0 0 0-4 3 16.339 16.339 0 0 0-5 2 18.924 18.924 0 0 0-5 3 762506.406 762506.406 0 0 1-84 46c-.886.825-1.219 1.825-1 3a169.223 169.223 0 0 1 22 11c1.159 1.75 2.826 2.75 5 3 .473 1.406 1.473 2.073 3 2 1.399 1.39 3.066 2.39 5 3 .342.838 1.008 1.172 2 1a24.766 24.766 0 0 0 8 5 2210.773 2210.773 0 0 1 53 33 144.841 144.841 0 0 1 1 24v25c-2.203-.104-4.203-.77-6-2-1.399-1.39-3.066-2.39-5-3-.711-1.701-2.045-2.701-4-3a6276.018 6276.018 0 0 0-89-56c-1.618-1.816-3.618-3.149-6-4a217.459 217.459 0 0 0-21-13c-.936-1.474-2.27-2.474-4-3-.79-.901-1.79-1.568-3-2-.342-.838-1.008-1.172-2-1-.79-.901-1.79-1.568-3-2-.79-.901-1.79-1.568-3-2-1.465-1.237-3.132-2.237-5-3-.79-.901-1.79-1.568-3-2a310.678 310.678 0 0 0-4-3 91.123 91.123 0 0 1 1-19l156-95a241.046 241.046 0 0 1 1 31zM752.5 213.5c-1.73.526-3.064 1.526-4 3-1.527-.073-2.527.594-3 2h-1a39.396 39.396 0 0 0-7 5c-1.527-.073-2.527.594-3 2-1.527-.073-2.527.594-3 2-.992-.172-1.658.162-2 1-1.562.233-2.895.9-4 2-8.703 5.68-17.37 11.347-26 17a4022.991 4022.991 0 0 0-92 58c-1.73.526-3.064 1.526-4 3-.992-.172-1.658.162-2 1l-4 2v-31a98.26 98.26 0 0 1 1-19.5 1829.312 1829.312 0 0 0 50-30.5c1.934-.61 3.601-1.61 5-3 1.527.073 2.527-.594 3-2a5.727 5.727 0 0 0 3-1 18.924 18.924 0 0 1 5-3 18.924 18.924 0 0 1 5-3 18.924 18.924 0 0 1 5-3 129.308 129.308 0 0 0 16-10l7-3.5a487187.843 487187.843 0 0 1-93-51.5 16.339 16.339 0 0 0-5-2c-1.575-1.614-2.241-3.614-2-6v-45a234.131 234.131 0 0 1 18 9.5 9107.913 9107.913 0 0 0 139 85c1.143 6.418 1.31 12.918.5 19.5-.708.881-1.542 1.547-2.5 2z" fill="#56b39f"/><path d="M597.5 125.5v6c-8.016 2.652-12.182 8.318-12.5 17a169.166 169.166 0 0 0 0 26c1.322 9.489 5.822 16.989 13.5 22.5 18.361 10.179 36.694 20.346 55 30.5-1.399 1.39-3.066 2.39-5 3a2427.868 2427.868 0 0 1-56-32.5c-10.125-10.232-14.125-22.565-12-37a125.877 125.877 0 0 1 1.5-20.5c2.392-7.892 7.558-12.892 15.5-15z" fill="#f6f7f8"/><path d="M185.5 128.5c6.565 4.448 10.065 10.781 10.5 19 .667 9 .667 18 0 27-1.419 12.011-7.252 21.177-17.5 27.5a799.48 799.48 0 0 0-47 26.5 24.766 24.766 0 0 1-8-5 709.16 709.16 0 0 0 54-29.5c9.508-8.515 13.508-19.182 12-32a58.615 58.615 0 0 0-2.5-19.5c-.383-.556-.883-.889-1.5-1v-13z" fill="#f5f5f6"/><path d="M597.5 131.5v4c-5.388 1.566-8.555 5.233-9.5 11-1.94 9.997-1.94 19.997 0 30 1.403 5.975 4.237 11.142 8.5 15.5l10 7c6.761 1.869 12.761 5.202 18 10a730.384 730.384 0 0 0 32 16.5c-.473 1.406-1.473 2.073-3 2a274103.166 274103.166 0 0 0-55-30.5c-7.678-5.511-12.178-13.011-13.5-22.5a169.166 169.166 0 0 1 0-26c.318-8.682 4.484-14.348 12.5-17z" fill="#f0f1f2"/><path d="M449.5 87.5c1.577 2.084 3.41 4.084 5.5 6a28.844 28.844 0 0 1 2.5 11c-1.263 9.723-3.763 19.057-7.5 28a6477.769 6477.769 0 0 1-50 173l-4 8a821.673 821.673 0 0 1-22.5 72 69.276 69.276 0 0 1 3.5-16 1370.075 1370.075 0 0 0 15-47c.495-1.973.662-3.973.5-6v-1a32.175 32.175 0 0 0 3-5 5268.486 5268.486 0 0 0 14.5-53 295.293 295.293 0 0 0 7-18 54.631 54.631 0 0 1 3-16 5600.396 5600.396 0 0 1 32-105 57.833 57.833 0 0 0 1-20c-.792-2.606-2.292-4.606-4.5-6v-2c-.237-1.291.096-2.291 1-3z" fill="#e6e9eb"/><path d="M604.5 150.5c30.955 17.146 61.955 34.313 93 51.5l-7 3.5a15834.718 15834.718 0 0 1-68-42.5 47.168 47.168 0 0 0-11.5-4.5 18.08 18.08 0 0 1-3.5 2c-2.45 7.971-.784 14.804 5 20.5a2770.75 2770.75 0 0 1 62 34.5 18.924 18.924 0 0 0-5 3 1780.565 1780.565 0 0 0-50-27.5c-18.349-8.566-23.349-22.066-15-40.5z" fill="#b9bfc5"/><path d="M171.5 154.5c4.546 11.579 2.213 21.412-7 29.5a2295.267 2295.267 0 0 1-56 30.5 169.223 169.223 0 0 0-22-11c-.219-1.175.114-2.175 1-3 28.027-15.346 56.027-30.679 84-46z" fill="#b1b8be"/><path d="M690.5 205.5a129.308 129.308 0 0 1-16 10 2770.75 2770.75 0 0 0-62-34.5c-5.784-5.696-7.45-12.529-5-20.5a18.08 18.08 0 0 0 3.5-2 47.168 47.168 0 0 1 11.5 4.5 15834.718 15834.718 0 0 0 68 42.5z" fill="#b0b7bd"/><path d="M185.5 146.5c1.157 8.824 1.324 17.824.5 27-1.08 9.083-5.913 15.249-14.5 18.5a3010.513 3010.513 0 0 0-8 7 2689.5 2689.5 0 0 1-42 23.5c-1.934-.61-3.601-1.61-5-3a472.978 472.978 0 0 0 51-28.5l5-1c1.5-2.833 3.667-5 6.5-6.5a32.5 32.5 0 0 0 3-7c.681-9.023.514-18.023-.5-27a308.607 308.607 0 0 1 4-3z" fill="#dde0e3"/><path d="M448.5 90.5v2c-1.612 2.463-1.112 4.463 1.5 6 1.76 4.942 1.927 9.942.5 15a21600.835 21600.835 0 0 1-57.5 196 18.453 18.453 0 0 0-.5 6v1a9330.036 9330.036 0 0 0-30.5 95c-8.157 9.28-17.991 11.447-29.5 6.5-2.832-3.251-4.165-7.084-4-11.5l.5-7a50.878 50.878 0 0 0 4.5-15h4c-2.406 6.735-4.073 13.735-5 21 2.031 9.354 7.697 12.521 17 9.5 5.695-2.288 9.195-6.455 10.5-12.5a2697.175 2697.175 0 0 0 20-71c6.639-21.107 13.639-41.44 21-61a356.424 356.424 0 0 1 3-15 89382.372 89382.372 0 0 0 20-68 2517.027 2517.027 0 0 1 8-37 153.473 153.473 0 0 0 8-13 146.471 146.471 0 0 0 7.5-29.5 670.69 670.69 0 0 1-1-10.5c-.09-2.652.576-4.986 2-7z" fill="#d1d5d9"/><path d="M181.5 149.5a143.682 143.682 0 0 1 .5 27 32.5 32.5 0 0 1-3 7c-2.833 1.5-5 3.667-6.5 6.5l-5 1a472.978 472.978 0 0 1-51 28.5c-1.527.073-2.527-.594-3-2a751.367 751.367 0 0 1 50-27.5c6.621-3.29 11.121-8.457 13.5-15.5a98.558 98.558 0 0 0-.5-23 16.339 16.339 0 0 1 5-2z" fill="#d0d4d8"/><path d="M597.5 135.5v7c-2.169 2.598-3.669 5.598-4.5 9-2.028 11.71-.361 22.71 5 33a258.36 258.36 0 0 0 10.5 9.5 676.519 676.519 0 0 1 31 16 111.869 111.869 0 0 0 17 10.5c1.434 1.088 2.434 2.422 3 4a5.727 5.727 0 0 1-3 1 730.384 730.384 0 0 1-32-16.5c-5.239-4.798-11.239-8.131-18-10l-10-7c-4.263-4.358-7.097-9.525-8.5-15.5-1.94-10.003-1.94-20.003 0-30 .945-5.767 4.112-9.434 9.5-11z" fill="#e4e6e8"/><path d="M176.5 151.5a98.558 98.558 0 0 1 .5 23c-2.379 7.043-6.879 12.21-13.5 15.5a751.367 751.367 0 0 0-50 27.5c-2.174-.25-3.841-1.25-5-3a2295.267 2295.267 0 0 0 56-30.5c9.213-8.088 11.546-17.921 7-29.5a18.924 18.924 0 0 1 5-3z" fill="#c2c7cc"/><path d="M597.5 142.5c-.241 2.386.425 4.386 2 6-1.466.847-2.3 2.18-2.5 4-2.145 11.892-.145 22.892 6 33a66.144 66.144 0 0 1 16.5 10.5 923.297 923.297 0 0 1 32 17c2.485 4.656 6.485 6.989 12 7 .556.383.889.883 1 1.5a18.924 18.924 0 0 0-5 3c-.566-1.578-1.566-2.912-3-4a111.869 111.869 0 0 1-17-10.5 676.519 676.519 0 0 0-31-16 258.36 258.36 0 0 1-10.5-9.5c-5.361-10.29-7.028-21.29-5-33 .831-3.402 2.331-6.402 4.5-9z" fill="#d5d9dc"/><path d="M599.5 148.5a16.339 16.339 0 0 1 5 2c-8.349 18.434-3.349 31.934 15 40.5a1780.565 1780.565 0 0 1 50 27.5 18.924 18.924 0 0 0-5 3c-.111-.617-.444-1.117-1-1.5-5.515-.011-9.515-2.344-12-7a923.297 923.297 0 0 0-32-17 66.144 66.144 0 0 0-16.5-10.5c-6.145-10.108-8.145-21.108-6-33 .2-1.82 1.034-3.153 2.5-4z" fill="#c7ccd1"/><path d="M185.5 141.5c.617.111 1.117.444 1.5 1a58.615 58.615 0 0 1 2.5 19.5c1.508 12.818-2.492 23.485-12 32a709.16 709.16 0 0 1-54 29.5c-.992.172-1.658-.162-2-1a2689.5 2689.5 0 0 0 42-23.5c2.645-2.323 5.312-4.656 8-7 8.587-3.251 13.42-9.417 14.5-18.5.824-9.176.657-18.176-.5-27v-5z" fill="#e8eaec"/><path d="M27.5 211.5a310.678 310.678 0 0 1 4 3c-16.246 10.259-19.746 23.926-10.5 41A238.643 238.643 0 0 0 45.5 274a6358.811 6358.811 0 0 1 114 72c6.863 4.441 14.197 5.774 22 4 5.494-2.832 8.661-7.332 9.5-13.5 2.255-13.939 1.255-27.605-3-41a81.316 81.316 0 0 0-2.5-3v-7c6.318 5.866 9.818 13.199 10.5 22a141.756 141.756 0 0 1-1 32c-1.838 10.336-8.004 16.003-18.5 17a45.792 45.792 0 0 1-13-3.5 9466.646 9466.646 0 0 1-139-88c-13.938-11.898-16.771-26.065-8.5-42.5 3.043-4.545 6.877-8.211 11.5-11z" fill="#f6f7f8"/><path d="M31.5 214.5c1.21.432 2.21 1.099 3 2-4.9 3.894-9.568 8.227-14 13-3.41 9.017-2.243 17.35 3.5 25A122.294 122.294 0 0 0 42.5 269a6723.125 6723.125 0 0 1 117 74c6.116 4.071 12.783 5.405 20 4a15.83 15.83 0 0 0 5.5-3.5c3.675-7.375 5.175-15.209 4.5-23.5.635-7.981-.699-15.481-4-22.5v-5a81.316 81.316 0 0 1 2.5 3c4.255 13.395 5.255 27.061 3 41-.839 6.168-4.006 10.668-9.5 13.5-7.803 1.774-15.137.441-22-4a6358.811 6358.811 0 0 0-114-72A238.643 238.643 0 0 1 21 255.5c-9.246-17.074-5.746-30.741 10.5-41z" fill="#f0f1f2"/><path d="M752.5 213.5c15.253 14.354 16.753 30.021 4.5 47a94.879 94.879 0 0 1-16.5 12.5 12460.6 12460.6 0 0 1-127 80c-16.922 7.287-27.755 2.121-32.5-15.5a186.345 186.345 0 0 1 1-37c2.36-8.858 7.526-15.524 15.5-20v6c-5.875 3.732-9.709 9.065-11.5 16-2 12-2 24 0 36 4.498 11.829 12.665 15.329 24.5 10.5a2736.575 2736.575 0 0 0 75-46 2365.167 2365.167 0 0 1 55-35c6.818-4.486 12.652-9.986 17.5-16.5 5.647-14.206 2.48-25.873-9.5-35 .936-1.474 2.27-2.474 4-3z" fill="#f6f7f8"/><path d="M748.5 216.5c11.98 9.127 15.147 20.794 9.5 35-4.848 6.514-10.682 12.014-17.5 16.5a2365.167 2365.167 0 0 0-55 35 2736.575 2736.575 0 0 1-75 46c-11.835 4.829-20.002 1.329-24.5-10.5-2-12-2-24 0-36 1.791-6.935 5.625-12.268 11.5-16v3c-4.051 3.089-6.884 7.089-8.5 12-3.773 13.929-3.107 27.596 2 41 4.491 4.759 9.991 6.259 16.5 4.5a115.377 115.377 0 0 0 13-6 2197.095 2197.095 0 0 1 48-31.5 141.946 141.946 0 0 0 31-21.5 318.07 318.07 0 0 0 46-27c5.003-3.993 8.837-8.826 11.5-14.5 2.867-12.262-.967-21.595-11.5-28 .473-1.406 1.473-2.073 3-2z" fill="#f0f1f2"/><path d="M45.5 223.5c.992-.172 1.658.162 2 1a113.542 113.542 0 0 1-9.5 8c-2.174 3.046-2.84 6.38-2 10a45.255 45.255 0 0 0 7.5 8.5c39.498 25.25 79.165 50.25 119 75 4.86 2.825 8.36 1.658 10.5-3.5 1.121-6.955.288-13.621-2.5-20 1.955.299 3.289 1.299 4 3 1.497 7.379 1.33 14.713-.5 22-1.351 1.51-3.018 2.51-5 3a34.217 34.217 0 0 1-11.5-4.5l-112-71c-15.94-10.602-15.94-21.102 0-31.5z" fill="#bec3c9"/><path d="M47.5 224.5c1.21.432 2.21 1.099 3 2-5.454 3.045-9.454 7.379-12 13 .998 3.505 2.998 6.338 6 8.5 35.305 22.656 70.638 45.323 106 68a374.376 374.376 0 0 0 15 7.5c3.337-1.84 5.004-4.673 5-8.5a94.871 94.871 0 0 0-1.5-8.5 68.474 68.474 0 0 1-5.5-6.5 19991.754 19991.754 0 0 0-69-41c-5.26-3.28-9.594-7.446-13-12.5a6276.018 6276.018 0 0 1 89 56c2.788 6.379 3.621 13.045 2.5 20-2.14 5.158-5.64 6.325-10.5 3.5a10943.404 10943.404 0 0 1-119-75 45.255 45.255 0 0 1-7.5-8.5c-.84-3.62-.174-6.954 2-10a113.542 113.542 0 0 0 9.5-8z" fill="#b7bec4"/><path d="M50.5 226.5c1.73.526 3.064 1.526 4 3a46.215 46.215 0 0 0-8.5 7c-.86 4.452.64 7.952 4.5 10.5a12991.81 12991.81 0 0 1 107 67c6.325 2 8.159-.166 5.5-6.5l-5.5-5.5a5297.304 5297.304 0 0 1-70-42c-6.623-4.092-10.623-9.925-12-17.5 2.382.851 4.382 2.184 6 4 3.406 5.054 7.74 9.22 13 12.5a19991.754 19991.754 0 0 1 69 41 68.474 68.474 0 0 0 5.5 6.5 94.871 94.871 0 0 1 1.5 8.5c.004 3.827-1.663 6.66-5 8.5a374.376 374.376 0 0 1-15-7.5 401849.454 401849.454 0 0 1-106-68c-3.002-2.162-5.002-4.995-6-8.5 2.546-5.621 6.546-9.955 12-13z" fill="#b2b8be"/><path d="M734.5 225.5c4.371 3.546 7.371 8.046 9 13.5-.527 5.055-2.861 9.055-7 12a11371.265 11371.265 0 0 1-121 77c-11.026 4.969-16.026 1.302-15-11a44.79 44.79 0 0 1 1-7.5c.342-.838 1.008-1.172 2-1-1.719 6.129-1.052 11.962 2 17.5a16.2 16.2 0 0 0 3.5 1.5 142.398 142.398 0 0 0 25.5-13.5l100-64c8.71-8.822 7.71-16.322-3-22.5.473-1.406 1.473-2.073 3-2z" fill="#bec3c9"/><path d="M731.5 227.5c10.71 6.178 11.71 13.678 3 22.5l-100 64a142.398 142.398 0 0 1-25.5 13.5 16.2 16.2 0 0 1-3.5-1.5c-3.052-5.538-3.719-11.371-2-17.5.936-1.474 2.27-2.474 4-3a205.6 205.6 0 0 0-1 9c-.577 3.964.757 6.964 4 9a73.265 73.265 0 0 0 14-6.5 5783.318 5783.318 0 0 0 110-71c3.455-4.461 3.288-8.961-.5-13.5a26.416 26.416 0 0 1-4.5-4c.342-.838 1.008-1.172 2-1z" fill="#b8bec4"/><path d="M729.5 228.5a26.416 26.416 0 0 0 4.5 4c3.788 4.539 3.955 9.039.5 13.5a5783.318 5783.318 0 0 1-110 71 73.265 73.265 0 0 1-14 6.5c-3.243-2.036-4.577-5.036-4-9a205.6 205.6 0 0 1 1-9 4022.991 4022.991 0 0 1 92-58c-2.336 4.849-5.669 9.016-10 12.5a18065.717 18065.717 0 0 0-72 43c-3.993 2.819-5.66 6.653-5 11.5 4.411.297 8.411-.869 12-3.5A8911.229 8911.229 0 0 1 725 247.5a25.027 25.027 0 0 0 6.5-8c-1.52-3.393-3.52-6.393-6-9 1.105-1.1 2.438-1.767 4-2z" fill="#b1b8be"/><path d="M54.5 229.5a217.459 217.459 0 0 1 21 13c1.377 7.575 5.377 13.408 12 17.5a5297.304 5297.304 0 0 0 70 42l5.5 5.5c2.659 6.334.825 8.5-5.5 6.5a12991.81 12991.81 0 0 0-107-67c-3.86-2.548-5.36-6.048-4.5-10.5a46.215 46.215 0 0 1 8.5-7zM725.5 230.5c2.48 2.607 4.48 5.607 6 9a25.027 25.027 0 0 1-6.5 8A8911.229 8911.229 0 0 0 624.5 311c-3.589 2.631-7.589 3.797-12 3.5-.66-4.847 1.007-8.681 5-11.5a18065.717 18065.717 0 0 1 72-43c4.331-3.484 7.664-7.651 10-12.5 8.63-5.653 17.297-11.32 26-17z" fill="#adb4ba"/><path d="M737.5 223.5c8.933 5.684 11.766 13.684 8.5 24a70.588 70.588 0 0 1-10.5 9.5c-8.94 2.915-16.94 7.582-24 14a646.315 646.315 0 0 0-29 17l-6 7a77.738 77.738 0 0 0-14 9l-6 1a33317.452 33317.452 0 0 1-45 28.5 261.12 261.12 0 0 1-7.5 2c-2.731-2.446-4.731-5.446-6-9a112.97 112.97 0 0 1-.5-15l4-2a44.79 44.79 0 0 0-1 7.5c-1.026 12.302 3.974 15.969 15 11a11371.265 11371.265 0 0 0 121-77c4.139-2.945 6.473-6.945 7-12-1.629-5.454-4.629-9.954-9-13.5.473-1.406 1.473-2.073 3-2z" fill="#c6cbd0"/><path d="M745.5 223.5c3.94 1.778 6.773 4.778 8.5 9 1.171 6.642.338 12.976-2.5 19-5.862 5.869-12.529 10.536-20 14-2.495 1.664-4.495 3.83-6 6.5a73.374 73.374 0 0 0-18 10 12.93 12.93 0 0 1-5 .5c2.071-1.391 3.738-3.224 5-5.5 6.64-3.287 13.307-6.621 20-10a563.19 563.19 0 0 0 24-19.5c2.881-9.436.881-17.436-6-24z" fill="#e0e2e5"/><path d="M34.5 216.5c1.868.763 3.535 1.763 5 3-12.22 5.449-16.72 14.782-13.5 28 2.788 6.322 7.622 10.155 14.5 11.5a25.403 25.403 0 0 0 7 6.5 124.961 124.961 0 0 1 11 8.5 143.405 143.405 0 0 0 18 10 31.57 31.57 0 0 1 5 6 1440.933 1440.933 0 0 1 52 33l6 2c1 2.333 2.667 4 5 5 7.11 1.744 13.11 5.244 18 10.5 7.498 4.629 14.331 3.962 20.5-2a20.64 20.64 0 0 0 2-6c.5-7.326.666-14.659.5-22v-13c3.301 7.019 4.635 14.519 4 22.5.675 8.291-.825 16.125-4.5 23.5a15.83 15.83 0 0 1-5.5 3.5c-7.217 1.405-13.884.071-20-4a6723.125 6723.125 0 0 0-117-74A122.294 122.294 0 0 1 24 254.5c-5.743-7.65-6.91-15.983-3.5-25 4.433-4.773 9.1-9.106 14-13z" fill="#e7e9eb"/><path d="M744.5 218.5h1c10.533 6.405 14.367 15.738 11.5 28-2.663 5.674-6.497 10.507-11.5 14.5a318.07 318.07 0 0 1-46 27 141.946 141.946 0 0 1-31 21.5 110.136 110.136 0 0 0 16-14.5c6.59-3.45 12.59-7.616 18-12.5a12.93 12.93 0 0 0 5-.5 73.374 73.374 0 0 1 18-10c1.505-2.67 3.505-4.836 6-6.5 7.471-3.464 14.138-8.131 20-14 2.838-6.024 3.671-12.358 2.5-19-1.727-4.222-4.56-7.222-8.5-9-.733-1.75-1.066-3.417-1-5z" fill="#e8eaec"/><path d="M448.5 92.5c2.208 1.394 3.708 3.394 4.5 6a57.833 57.833 0 0 1-1 20 5600.396 5600.396 0 0 0-32 105 54.631 54.631 0 0 0-3 16 295.293 295.293 0 0 1-7 18 5268.486 5268.486 0 0 1-14.5 53 32.175 32.175 0 0 1-3 5 18.453 18.453 0 0 1 .5-6 21600.835 21600.835 0 0 0 57.5-196c1.427-5.058 1.26-10.058-.5-15-2.612-1.537-3.112-3.537-1.5-6z" fill="#dee1e3"/><path d="M42.5 221.5c1.21.432 2.21 1.099 3 2-15.94 10.398-15.94 20.898 0 31.5l112 71a34.217 34.217 0 0 0 11.5 4.5c1.982-.49 3.649-1.49 5-3 1.83-7.287 1.997-14.621.5-22 1.934.61 3.601 1.61 5 3a125.572 125.572 0 0 1-1.5 23c-1.298 2.733-3.465 4.066-6.5 4a169.595 169.595 0 0 1-8-1.5c-2.844-3.422-6.511-5.255-11-5.5a151.662 151.662 0 0 1-12-9.5 105.941 105.941 0 0 1-17-9.5c-1.472-3.305-3.805-5.805-7-7.5a352.773 352.773 0 0 1-30-19 160.467 160.467 0 0 1-26-13.5 51.104 51.104 0 0 0-4-5.5c-10.64-2.951-19.473-8.784-26.5-17.5-2.483-6.452-1.65-12.452 2.5-18 3.362-2.343 6.696-4.676 10-7z" fill="#c6cbcf"/><path d="M47.5 265.5a8.43 8.43 0 0 1 4 .5A585.008 585.008 0 0 0 95 292.5c2.502 4.524 6.335 7.524 11.5 9a180.286 180.286 0 0 1 8 7.5c7.028 1.578 13.028 4.912 18 10 4.51 1.084 8.176 3.417 11 7a25.959 25.959 0 0 0 9 2.5c4.489.245 8.156 2.078 11 5.5 2.655.564 5.321 1.064 8 1.5 3.035.066 5.202-1.267 6.5-4a125.572 125.572 0 0 0 1.5-23c1.797 1.23 3.797 1.896 6 2 .166 7.341 0 14.674-.5 22a20.64 20.64 0 0 1-2 6c-6.169 5.962-13.002 6.629-20.5 2-4.89-5.256-10.89-8.756-18-10.5-2.333-1-4-2.667-5-5l-6-2a1440.933 1440.933 0 0 0-52-33 31.57 31.57 0 0 0-5-6 143.405 143.405 0 0 1-18-10 124.961 124.961 0 0 0-11-8.5z" fill="#dbdee1"/><path d="M39.5 219.5c1.21.432 2.21 1.099 3 2a2797.655 2797.655 0 0 1-10 7c-4.15 5.548-4.983 11.548-2.5 18 7.027 8.716 15.86 14.549 26.5 17.5a51.104 51.104 0 0 1 4 5.5 160.467 160.467 0 0 0 26 13.5 352.773 352.773 0 0 0 30 19c3.195 1.695 5.528 4.195 7 7.5a105.941 105.941 0 0 0 17 9.5 151.662 151.662 0 0 0 12 9.5 25.959 25.959 0 0 1-9-2.5c-2.824-3.583-6.49-5.916-11-7-4.972-5.088-10.972-8.422-18-10a180.286 180.286 0 0 0-8-7.5c-5.165-1.476-8.998-4.476-11.5-9A585.008 585.008 0 0 1 51.5 266a8.43 8.43 0 0 0-4-.5 25.403 25.403 0 0 1-7-6.5c-6.878-1.345-11.712-5.178-14.5-11.5-3.22-13.218 1.28-22.551 13.5-28z" fill="#d2d6da"/><path d="M702.5 282.5c-5.41 4.884-11.41 9.05-18 12.5a110.136 110.136 0 0 1-16 14.5 96.876 96.876 0 0 0-18 10.5c-6.769 1.214-12.435 4.214-17 9a25.471 25.471 0 0 1-9 4 65.881 65.881 0 0 1-8 7 49.887 49.887 0 0 0-9 3c-8.056 2.211-13.223-.622-15.5-8.5-2.744-12.999-1.744-25.666 3-38 .708-.881 1.542-1.547 2.5-2v3a32.47 32.47 0 0 0-4.5 10 96.54 96.54 0 0 0 .5 24 24.901 24.901 0 0 0 5 8c2.946 1.155 5.946 1.321 9 .5a220.498 220.498 0 0 0 37.5-22.5 110.45 110.45 0 0 1 15.5-7.5c1.227-2.27 2.894-4.103 5-5.5 9.612-5.811 19.279-11.645 29-17.5 1.743-2.957 4.41-4.457 8-4.5z" fill="#e0e2e5"/><path d="M597.5 289.5v5c-.958.453-1.792 1.119-2.5 2-4.744 12.334-5.744 25.001-3 38 2.277 7.878 7.444 10.711 15.5 8.5a49.887 49.887 0 0 1 9-3 65.881 65.881 0 0 0 8-7 25.471 25.471 0 0 0 9-4c4.565-4.786 10.231-7.786 17-9a96.876 96.876 0 0 1 18-10.5 2197.095 2197.095 0 0 0-48 31.5 115.377 115.377 0 0 1-13 6c-6.509 1.759-12.009.259-16.5-4.5-5.107-13.404-5.773-27.071-2-41 1.616-4.911 4.449-8.911 8.5-12z" fill="#e8eaec"/><path d="M744.5 218.5c-.066 1.583.267 3.25 1 5 6.881 6.564 8.881 14.564 6 24a563.19 563.19 0 0 1-24 19.5 2844.856 2844.856 0 0 1-20 10c-1.262 2.276-2.929 4.109-5 5.5-3.59.043-6.257 1.543-8 4.5a20511.135 20511.135 0 0 0-29 17.5c-2.106 1.397-3.773 3.23-5 5.5a110.45 110.45 0 0 0-15.5 7.5 220.498 220.498 0 0 1-37.5 22.5c-3.054.821-6.054.655-9-.5a24.901 24.901 0 0 1-5-8 96.54 96.54 0 0 1-.5-24 32.47 32.47 0 0 1 4.5-10v14a112.97 112.97 0 0 0 .5 15c1.269 3.554 3.269 6.554 6 9a261.12 261.12 0 0 0 7.5-2 33317.452 33317.452 0 0 0 45-28.5l6-1a77.738 77.738 0 0 1 14-9l6-7a646.315 646.315 0 0 1 29-17c7.06-6.418 15.06-11.085 24-14a70.588 70.588 0 0 0 10.5-9.5c3.266-10.316.433-18.316-8.5-24a39.396 39.396 0 0 1 7-5z" fill="#d3d7da"/><path d="M446.5 97.5a670.69 670.69 0 0 0 1 10.5 146.471 146.471 0 0 1-7.5 29.5 153.473 153.473 0 0 1-8 13 2517.027 2517.027 0 0 0-8 37 89382.372 89382.372 0 0 1-20 68 356.424 356.424 0 0 0-3 15c-7.361 19.56-14.361 39.893-21 61a2697.175 2697.175 0 0 1-20 71c-1.305 6.045-4.805 10.212-10.5 12.5-9.303 3.021-14.969-.146-17-9.5.927-7.265 2.594-14.265 5-21h4a392.154 392.154 0 0 0-4 19c1.845 7.562 6.178 9.395 13 5.5l3.5-3.5a3277.983 3277.983 0 0 1 8.5-22 22676.575 22676.575 0 0 1 84-286z" fill="#c0c7cb"/><path d="M326.5 383.5h36a3277.983 3277.983 0 0 0-8.5 22l-3.5 3.5c-6.822 3.895-11.155 2.062-13-5.5a392.154 392.154 0 0 1 4-19h-12c-1.291.237-2.291-.096-3-1z" fill="#b2bac0"/><path d="M392.5 316.5a18.453 18.453 0 0 1-.5 6 1370.075 1370.075 0 0 1-15 47 69.276 69.276 0 0 0-3.5 16 332.046 332.046 0 0 0-8.5 24 47.79 47.79 0 0 0-6 10c-4.731 3.421-10.064 4.754-16 4-7.795.845-13.461-2.155-17-9-.773-10.235.393-20.235 3.5-30h4a50.878 50.878 0 0 1-4.5 15l-.5 7c-.165 4.416 1.168 8.249 4 11.5 11.509 4.947 21.343 2.78 29.5-6.5a9330.036 9330.036 0 0 1 30.5-95z" fill="#dcdfe2"/></svg>